<svg width="66" height="60" viewBox="0 0 66 60" fill="none" xmlns="http://www.w3.org/2000/svg">
<path d="M1.39648 53.3203H2.80273V41.8848H1.39648V40.1758L8.05664 40.1953C8.6556 40.1953 9.21875 40.3092 9.74609 40.5371C10.2734 40.7585 10.7324 41.0645 11.123 41.4551C11.5137 41.8392 11.8197 42.2949 12.041 42.8223C12.2689 43.3496 12.3828 43.916 12.3828 44.5215C12.3828 45.153 12.207 45.7292 11.8555 46.25C11.5039 46.7708 11.0026 47.1875 10.3516 47.5C10.6706 47.6693 10.9603 47.8678 11.2207 48.0957C11.4811 48.3171 11.7025 48.5612 11.8848 48.8281C12.0671 49.0951 12.207 49.3783 12.3047 49.6777C12.4089 49.9772 12.4609 50.2832 12.4609 50.5957C12.4609 51.2142 12.347 51.7904 12.1191 52.3242C11.8978 52.8581 11.5918 53.3236 11.2012 53.7207C10.8105 54.1178 10.3516 54.4303 9.82422 54.6582C9.30339 54.8861 8.74349 55 8.14453 55H1.39648V53.3203ZM4.7168 48.418V53.3203H8.16406C8.47656 53.3203 8.76628 53.2422 9.0332 53.0859C9.30013 52.9297 9.53451 52.7279 9.73633 52.4805C9.93815 52.2266 10.0944 51.9401 10.2051 51.6211C10.3223 51.3021 10.3809 50.9766 10.3809 50.6445C10.3809 50.3581 10.3223 50.0814 10.2051 49.8145C10.0879 49.5475 9.92839 49.3099 9.72656 49.1016C9.53125 48.8932 9.29688 48.7272 9.02344 48.6035C8.75651 48.4798 8.47005 48.418 8.16406 48.418H4.7168ZM4.7168 41.8848V46.7188H8.07617C8.38867 46.7188 8.67839 46.6569 8.94531 46.5332C9.21875 46.4095 9.45312 46.2435 9.64844 46.0352C9.85026 45.8268 10.0098 45.5859 10.127 45.3125C10.2441 45.0391 10.3027 44.7559 10.3027 44.4629C10.3027 44.1439 10.2441 43.8314 10.127 43.5254C10.0098 43.2129 9.85026 42.9362 9.64844 42.6953C9.44661 42.4544 9.20898 42.2591 8.93555 42.1094C8.66862 41.9596 8.38216 41.8848 8.07617 41.8848H4.7168ZM14.1016 44.8828H17.4023V53.3203H18.9258V55H14.1211V53.3203H15.5664V46.5625H14.1016V44.8828ZM15.2246 41.2988C15.2246 41.1296 15.2572 40.9701 15.3223 40.8203C15.3939 40.6641 15.485 40.5306 15.5957 40.4199C15.7129 40.3027 15.8496 40.2116 16.0059 40.1465C16.1621 40.0749 16.3281 40.0391 16.5039 40.0391C16.6732 40.0391 16.8327 40.0749 16.9824 40.1465C17.1387 40.2116 17.2721 40.3027 17.3828 40.4199C17.5 40.5306 17.5911 40.6641 17.6562 40.8203C17.7279 40.9701 17.7637 41.1296 17.7637 41.2988C17.7637 41.4746 17.7279 41.6406 17.6562 41.7969C17.5911 41.9531 17.5 42.0931 17.3828 42.2168C17.2721 42.334 17.1387 42.4284 16.9824 42.5C16.8327 42.5651 16.6732 42.5977 16.5039 42.5977C16.3281 42.5977 16.1621 42.5651 16.0059 42.5C15.8496 42.4284 15.7129 42.334 15.5957 42.2168C15.485 42.0931 15.3939 41.9531 15.3223 41.7969C15.2572 41.6406 15.2246 41.4746 15.2246 41.2988ZM26.5723 39.8047H29.7656V53.3203H31.25V55H27.9492V54.1699C27.6237 54.502 27.2461 54.7624 26.8164 54.9512C26.3867 55.1335 25.8984 55.2246 25.3516 55.2246C24.668 55.2246 24.0299 55.1074 23.4375 54.873C22.8516 54.6322 22.3405 54.2839 21.9043 53.8281C21.4746 53.3659 21.1361 52.8027 20.8887 52.1387C20.6478 51.4681 20.5273 50.7031 20.5273 49.8438C20.5273 49.0625 20.6445 48.3529 20.8789 47.7148C21.1133 47.0703 21.4453 46.5234 21.875 46.0742C22.3047 45.6185 22.8223 45.2669 23.4277 45.0195C24.0332 44.7656 24.707 44.6387 25.4492 44.6387C25.9375 44.6387 26.3835 44.694 26.7871 44.8047C27.1908 44.9089 27.5781 45.0944 27.9492 45.3613V41.4844H26.5723V39.8047ZM25.5859 53.6426C26.1263 53.6426 26.5788 53.5645 26.9434 53.4082C27.3079 53.2454 27.6432 53.0046 27.9492 52.6855V47.0215C27.6237 46.748 27.2493 46.5495 26.8262 46.4258C26.403 46.3021 25.9701 46.2402 25.5273 46.2402C25.0977 46.2402 24.694 46.3216 24.3164 46.4844C23.9388 46.6406 23.6068 46.8717 23.3203 47.1777C23.0404 47.4837 22.819 47.8581 22.6562 48.3008C22.4935 48.7435 22.4121 49.2513 22.4121 49.8242C22.4121 50.4492 22.4902 50.9993 22.6465 51.4746C22.8027 51.9499 23.0208 52.3503 23.3008 52.6758C23.5807 52.9948 23.916 53.2357 24.3066 53.3984C24.6973 53.5612 25.1237 53.6426 25.5859 53.6426ZM38.9551 39.8047H42.1484V53.3203H43.6328V55H40.332V54.1699C40.0065 54.502 39.6289 54.7624 39.1992 54.9512C38.7695 55.1335 38.2812 55.2246 37.7344 55.2246C37.0508 55.2246 36.4128 55.1074 35.8203 54.873C35.2344 54.6322 34.7233 54.2839 34.2871 53.8281C33.8574 53.3659 33.5189 52.8027 33.2715 52.1387C33.0306 51.4681 32.9102 50.7031 32.9102 49.8438C32.9102 49.0625 33.0273 48.3529 33.2617 47.7148C33.4961 47.0703 33.8281 46.5234 34.2578 46.0742C34.6875 45.6185 35.2051 45.2669 35.8105 45.0195C36.416 44.7656 37.0898 44.6387 37.832 44.6387C38.3203 44.6387 38.7663 44.694 39.1699 44.8047C39.5736 44.9089 39.9609 45.0944 40.332 45.3613V41.4844H38.9551V39.8047ZM37.9688 53.6426C38.5091 53.6426 38.9616 53.5645 39.3262 53.4082C39.6908 53.2454 40.026 53.0046 40.332 52.6855V47.0215C40.0065 46.748 39.6322 46.5495 39.209 46.4258C38.7858 46.3021 38.3529 46.2402 37.9102 46.2402C37.4805 46.2402 37.0768 46.3216 36.6992 46.4844C36.3216 46.6406 35.9896 46.8717 35.7031 47.1777C35.4232 47.4837 35.2018 47.8581 35.0391 48.3008C34.8763 48.7435 34.7949 49.2513 34.7949 49.8242C34.7949 50.4492 34.873 50.9993 35.0293 51.4746C35.1855 51.9499 35.4036 52.3503 35.6836 52.6758C35.9635 52.9948 36.2988 53.2357 36.6895 53.3984C37.0801 53.5612 37.5065 53.6426 37.9688 53.6426ZM47.0898 50.1758C47.0898 50.4622 47.1094 50.7259 47.1484 50.9668C47.194 51.2012 47.2559 51.4258 47.334 51.6406C47.5749 52.2917 47.959 52.7832 48.4863 53.1152C49.0202 53.4408 49.6224 53.6035 50.293 53.6035C50.8203 53.6035 51.3314 53.5319 51.8262 53.3887C52.3275 53.2389 52.8516 53.0078 53.3984 52.6953L54.1309 53.9355C53.4668 54.3913 52.7995 54.7298 52.1289 54.9512C51.4583 55.1725 50.7617 55.2832 50.0391 55.2832C49.3555 55.2832 48.7207 55.1693 48.1348 54.9414C47.5553 54.7135 47.054 54.375 46.6309 53.9258C46.2142 53.4766 45.8854 52.9167 45.6445 52.2461C45.4102 51.5755 45.293 50.7943 45.293 49.9023C45.293 49.1797 45.3939 48.4993 45.5957 47.8613C45.7975 47.2168 46.097 46.6569 46.4941 46.1816C46.8978 45.6999 47.3958 45.319 47.9883 45.0391C48.5807 44.7591 49.2708 44.6191 50.0586 44.6191C50.8203 44.6191 51.4551 44.7363 51.9629 44.9707C52.4772 45.1986 52.8939 45.5046 53.2129 45.8887C53.5384 46.2663 53.7826 46.6992 53.9453 47.1875C54.1146 47.6758 54.2318 48.1738 54.2969 48.6816C54.3294 48.929 54.349 49.1797 54.3555 49.4336C54.3685 49.6875 54.375 49.9349 54.375 50.1758H47.0898ZM49.9316 46.1426C49.5085 46.1426 49.1374 46.2044 48.8184 46.3281C48.5059 46.4453 48.2389 46.6178 48.0176 46.8457C47.7962 47.0671 47.6172 47.3405 47.4805 47.666C47.3503 47.9915 47.2526 48.3561 47.1875 48.7598H52.4316C52.4056 48.3822 52.3438 48.0339 52.2461 47.7148C52.1549 47.3958 52.0117 47.1191 51.8164 46.8848C51.6211 46.6504 51.3704 46.4681 51.0645 46.3379C50.7585 46.2077 50.3809 46.1426 49.9316 46.1426ZM64.1309 47.0215H62.2754V46.3965C62.0605 46.3965 61.8392 46.4388 61.6113 46.5234C61.39 46.6016 61.1816 46.7253 60.9863 46.8945C60.791 47.0573 60.6185 47.2689 60.4688 47.5293C60.3255 47.7832 60.2214 48.0859 60.1562 48.4375V53.3203H61.875V55H56.8555V53.3203H58.252L58.2617 46.5625H56.8555V44.8828H60.0879V46.2793C60.2051 46.071 60.3353 45.8789 60.4785 45.7031C60.6283 45.5208 60.791 45.3646 60.9668 45.2344C61.1491 45.0977 61.3477 44.9935 61.5625 44.9219C61.7839 44.8438 62.0215 44.8047 62.2754 44.8047C62.6139 44.8047 62.9329 44.8047 63.2324 44.8047C63.5319 44.8047 63.8314 44.8112 64.1309 44.8242V47.0215Z" fill="black"/>
<line x1="15.5" y1="33.5" x2="36.5" y2="33.5" stroke="black" stroke-width="3" stroke-linecap="round"/>
<path d="M16 34C16 31.2386 18.2386 29 21 29H31C33.7614 29 36 31.2386 36 34V34H16V34Z" fill="black"/>
<path d="M48.0625 27.1857L49.6561 28.7793C50.7605 29.8836 50.7605 31.6742 49.6561 32.7786V32.7786C48.5517 33.883 46.7612 33.883 45.6568 32.7786L44.0632 31.185L48.0625 27.1857Z" fill="black"/>
<path d="M37.8169 16.8174L46.8138 25.8143L42.8145 29.8136L33.8176 20.8167L37.8169 16.8174Z" fill="black"/>
<path d="M32.4142 21.0711C31.6332 20.29 31.6332 19.0237 32.4142 18.2426L35.2426 15.4142C36.0237 14.6332 37.29 14.6332 38.0711 15.4142V15.4142C38.8521 16.1953 38.8521 17.4616 38.0711 18.2426L35.2426 21.0711C34.4616 21.8521 33.1953 21.8521 32.4142 21.0711V21.0711Z" fill="black"/>
<rect x="28.7783" y="4" width="11" height="11" transform="rotate(45 28.7783 4)" fill="black"/>
<rect x="17" y="13.1213" width="3" height="15" rx="1.5" transform="rotate(-45 17 13.1213)" fill="black"/>
<rect x="28" y="2.12134" width="3" height="15" rx="1.5" transform="rotate(-45 28 2.12134)" fill="black"/>
</svg>
