<svg width="20" height="20" viewBox="0 0 20 20" fill="none" xmlns="http://www.w3.org/2000/svg">
<circle cx="10" cy="10" r="10" fill="#C7AD5E"/>
<path d="M11.437 15.135C10.847 15.135 10.352 15.03 9.95201 14.82C9.56201 14.61 9.26701 14.305 9.06701 13.905C8.87701 13.505 8.78201 13.015 8.78201 12.435V8.745H7.82201C7.64201 8.745 7.50201 8.7 7.40201 8.61C7.30201 8.51 7.25201 8.38 7.25201 8.22C7.25201 8.05 7.30201 7.92 7.40201 7.83C7.50201 7.74 7.64201 7.695 7.82201 7.695H8.78201V6.06C8.78201 5.83 8.84201 5.66 8.96201 5.55C9.08201 5.43 9.25201 5.37 9.47201 5.37C9.69201 5.37 9.85701 5.43 9.96701 5.55C10.087 5.66 10.147 5.83 10.147 6.06V7.695H11.962C12.152 7.695 12.297 7.74 12.397 7.83C12.497 7.92 12.547 8.05 12.547 8.22C12.547 8.38 12.497 8.51 12.397 8.61C12.297 8.7 12.152 8.745 11.962 8.745H10.147V12.315C10.147 12.865 10.262 13.28 10.492 13.56C10.722 13.84 11.102 13.98 11.632 13.98C11.822 13.98 11.982 13.965 12.112 13.935C12.242 13.895 12.357 13.875 12.457 13.875C12.547 13.865 12.622 13.895 12.682 13.965C12.752 14.035 12.787 14.165 12.787 14.355C12.787 14.495 12.762 14.625 12.712 14.745C12.672 14.855 12.587 14.93 12.457 14.97C12.337 15.01 12.177 15.045 11.977 15.075C11.777 15.115 11.597 15.135 11.437 15.135Z" fill="black"/>
</svg>
